<svg viewBox="0 177.74031602708806 1022.4 315.8493453724605" xmlns="http://www.w3.org/2000/svg" id="Camada_1" style="max-height: 500px" width="1022.4" height="315.8493453724605">
  <defs>
    <style>
      .cls-1{fill:#723e50;}
      .cls-2{fill:#0A1F30;font-family:CoolveticaRg-Regular, Coolvetica;font-size:205.95px; font-weight: bold;}
      .cls-3{fill:#625b71;}
    </style>
  </defs>
  <text transform="translate(188.39 442.93)" class="cls-2"><tspan y="0" x="0">JuryScan</tspan></text>
  <path d="M164.13,272.81l-15.44,16,.51,1.19c23.77,22.52,22.34,20.7,45.47,43.07,3.66,3.54,10.62,9.06,12.43,13.43,4.08,9.83-7.26,18.13-15.92,11.64l-56.8-54.01-16.66,17.26-40.37-39.41,26.57-27.5,19.81-21.54,40.4,39.88Z" class="cls-1"/>
  <path d="M111.34,337.95l-50.37-49.33,12.89-3.69c13.76,13.03,26.87,26.59,40.54,39.71l-3.07,13.31Z" class="cls-1"/>
  <path d="M180.22,267.51l-12.8,3.51c-1.02.04-1.22-1.16-1.88-1.83-9.73-9.98-20.14-19.46-29.94-29.37-3.02-3.05-6.26-5.89-9.28-8.94l-.22-1.19,2.91-12.32,51.21,50.14Z" class="cls-1"/>
  <rect height="21.59" width="89.23" y="342.86" x="51.77" class="cls-3"/>
  <polygon points="120.8 369.45 71.98 369.45 71.98 388.12 120.8 388.12 120.8 369.45 120.8 369.45" class="cls-1"/>
  <polygon points="225.82 254.67 225.29 219.68 224.66 180.07 150.95 181.19 151.38 206.73 198.25 206.74 198.79 254.67 225.82 254.67" class="cls-3"/>
  <polygon points="0 353.75 .65 388.73 1.43 428.34 75.16 428.34 75.16 404.91 28.3 405.08 27.03 353.65 0 353.75" class="cls-3"/>
</svg>